# xmcd CD database file
#
# Track frame offsets:
#	150
#	14827
#	23444
#	32289
#	41619
#	52337
#	66435
#	74031
#	81323
#	91303
#	97182
#	109914
#	116263
#	123986
#	132459
#	140592
#
# Disc length: 2029 seconds
#
# Revision: 0
# Processed by: cddbd v1.4PL0 Copyright (c) Steve Scherf et al.
# Submitted via: Feurio! 1.63 - http://www.feurio.com
#
DISCID=ec07eb10
DTITLE=Jim Reeves - Making believe
DYEAR=1900
DGENRE=country
TTITLE0=Making believe
TTITLE1=If you were mine
TTITLE2=Home
TTITLE3=Dear hearts and gentle people
TTITLE4=If heartaches 
TTITLE5=The highway to nowhere
TTITLE6=Till the end of the world
TTITLE7=The Oklahoma Hills
TTITLE8=Just call me lonesome
TTITLE9=Have I told you lately that I
TTITLE10=How´s the world treating you
TTITLE11=I´m beginning to forget you
TTITLE12=Roly Poly
TTITLE13=The wind up doll
TTITLE14=Sweet evening breeze
TTITLE15=Your old love letters
EXTD=
EXTT0=
EXTT1=
EXTT2=
EXTT3=
EXTT4=
EXTT5=
EXTT6=
EXTT7=
EXTT8=
EXTT9=
EXTT10=
EXTT11=
EXTT12=
EXTT13=
EXTT14=
EXTT15=
PLAYORDER=
